# Blender 4.1.1
# www.blender.org
mtllib armL.mtl
o Cube.001
v -1.635177 6.410675 -4.377206
v -2.961425 6.886707 0.054155
v -1.584528 7.475429 -4.476427
v -2.910776 7.951461 -0.045066
v -0.754465 6.393516 -4.111777
v -2.080713 6.869547 0.319584
v -0.703817 7.458270 -4.210999
v -2.030065 7.934301 0.220363
vn -0.9573 0.0187 -0.2885
vn 0.0473 0.9946 -0.0927
vn 0.9573 -0.0187 0.2885
vn -0.0473 -0.9946 0.0927
vn 0.2852 -0.1024 -0.9530
vn -0.2852 0.1024 0.9530
vt 0.500000 0.000087
vt 0.250043 0.250043
vt 0.250043 0.000087
vt 0.500000 0.250043
vt 0.250043 0.500000
vt 0.500000 0.500000
vt 0.250043 0.749957
vt 0.500000 0.749957
vt 0.250043 0.999913
vt 0.000087 0.749957
vt 0.000087 0.500000
vt 0.749957 0.500000
vt 0.500000 0.999913
vt 0.749957 0.749957
s 0
usemtl Material.002
f 2/1/1 3/2/1 1/3/1
f 4/4/2 7/5/2 3/2/2
f 8/6/3 5/7/3 7/5/3
f 6/8/4 1/9/4 5/7/4
f 7/5/5 1/10/5 3/11/5
f 4/12/6 6/8/6 8/6/6
f 2/1/1 4/4/1 3/2/1
f 4/4/2 8/6/2 7/5/2
f 8/6/3 6/8/3 5/7/3
f 6/8/4 2/13/4 1/9/4
f 7/5/5 5/7/5 1/10/5
f 4/12/6 2/14/6 6/8/6
