# Blender 4.1.1
# www.blender.org
mtllib legR.mtl
o legR
v -0.501539 -4.293913 0.833889
v -0.501539 -0.008763 0.833889
v -0.501539 -4.293913 -0.814562
v -0.501539 -0.008763 -0.814562
v 0.514820 -4.293913 0.833889
v 0.514820 -0.008763 0.833889
v 0.514820 -4.293913 -0.814562
v 0.514820 -0.008763 -0.814562
vn -1.0000 -0.0000 -0.0000
vn -0.0000 -0.0000 -1.0000
vn 1.0000 -0.0000 -0.0000
vn -0.0000 -0.0000 1.0000
vn -0.0000 -1.0000 -0.0000
vn -0.0000 1.0000 -0.0000
vt 0.500000 0.000087
vt 0.250043 0.250043
vt 0.250043 0.000087
vt 0.500000 0.250043
vt 0.250043 0.500000
vt 0.500000 0.500000
vt 0.250043 0.749957
vt 0.500000 0.749957
vt 0.250043 0.999913
vt 0.000087 0.749957
vt 0.000087 0.500000
vt 0.749957 0.500000
vt 0.500000 0.999913
vt 0.749957 0.749957
s 0
usemtl Material.006
f 2/1/1 3/2/1 1/3/1
f 4/4/2 7/5/2 3/2/2
f 8/6/3 5/7/3 7/5/3
f 6/8/4 1/9/4 5/7/4
f 7/5/5 1/10/5 3/11/5
f 4/12/6 6/8/6 8/6/6
f 2/1/1 4/4/1 3/2/1
f 4/4/2 8/6/2 7/5/2
f 8/6/3 6/8/3 5/7/3
f 6/8/4 2/13/4 1/9/4
f 7/5/5 5/7/5 1/10/5
f 4/12/6 2/14/6 6/8/6
