# Blender 4.4.1
# www.blender.org
mtllib player.mtl
o Cube
v 1.106620 5.974988 0.065889
v 1.107175 3.307522 0.045568
v -1.118234 5.974988 0.065883
v -1.118775 3.307531 0.045017
v 1.106620 5.975179 0.029810
v 1.105464 3.307431 0.009530
v -1.118234 5.975177 0.029804
v -1.117064 3.307440 0.008979
v 1.106035 4.641217 0.020843
v -0.005804 3.306817 0.048285
v -0.005813 3.306876 0.083901
v -1.118342 4.641244 0.056164
v -0.005807 5.975019 0.029353
v -1.117608 4.641226 0.020127
v 1.106727 4.641231 0.056890
v -0.005807 4.641082 0.065431
v -0.005807 5.975018 0.065431
v -0.005807 4.641082 0.029353
v -0.562021 5.975038 0.029410
v -0.562171 4.641073 0.066271
v -0.318332 3.306843 0.045876
v -0.562021 5.975014 0.065489
v -0.561858 4.641063 0.030310
v -0.319887 3.306928 0.081896
v 0.550541 4.641073 0.066251
v 0.550264 4.641065 0.030285
v 0.550407 5.975039 0.029410
v 0.308270 3.306918 0.082516
v 0.550407 5.975014 0.065489
v 0.306729 3.306834 0.046450
v 1.106621 5.242908 0.029001
v -1.118234 5.242887 0.029064
v 1.106621 5.242774 0.065129
v -1.118235 5.242772 0.065092
v -0.005807 5.242792 0.029353
v -0.005807 5.242792 0.065431
v -0.562016 5.242812 0.029311
v -0.562021 5.242787 0.065360
v 0.550407 5.242816 0.029275
v 0.550407 5.242787 0.065367
v -0.320811 -0.054677 0.085074
v -1.119562 -0.053972 0.047153
v -1.117851 -0.054070 0.011114
v -0.319100 -0.054775 0.049036
v 1.107961 -0.053982 0.047703
v 0.309210 -0.054687 0.085625
v 0.307499 -0.054785 0.049586
v 1.106250 -0.054081 0.011665
v -3.690560 5.242768 0.064927
v -3.690559 5.974993 0.065942
v -3.690560 5.975197 0.029863
v -3.690560 5.242972 0.028848
v 3.678945 5.242972 0.028845
v 3.678944 5.975197 0.029860
v 3.678944 5.974993 0.065938
v 3.678944 5.242768 0.064923
v 0.272257 4.641052 0.030933
v 0.272300 5.975019 0.065431
v 0.150501 3.306808 0.048635
v 0.272366 4.641067 0.066477
v 0.272300 5.975019 0.029352
v 0.151151 3.306874 0.084356
v 0.272300 5.242791 0.065424
v 0.272300 5.242801 0.029324
v -0.283914 5.975019 0.029354
v -0.283988 4.641066 0.066585
v -0.162769 3.306881 0.083862
v -0.162108 3.306817 0.048112
v -0.283914 5.975019 0.065431
v -0.283866 4.641050 0.031017
v -0.283914 5.242798 0.029331
v -0.283914 5.242791 0.065419
v 0.272300 6.142313 0.029352
v -0.005807 6.142312 0.029353
v -0.005807 6.142312 0.065431
v 0.272300 6.142313 0.065431
v -0.005807 6.142313 0.029353
v -0.283914 6.142313 0.029353
v -0.283914 6.142313 0.065431
v -0.005807 6.142312 0.065431
v 0.272300 7.352652 0.029352
v -0.005807 7.352652 0.029353
v -0.005807 7.352652 0.065431
v 0.272300 7.352652 0.065431
v -0.005807 7.352652 0.029353
v -0.283914 7.352652 0.029353
v -0.283914 7.352652 0.065431
v -0.005807 7.352652 0.065431
v 0.723538 6.142313 0.029352
v 0.723538 7.352652 0.029352
v 0.723538 7.352652 0.065431
v 0.723538 6.142313 0.065431
v -0.735152 6.142313 0.065431
v -0.735152 7.352652 0.065431
v -0.735152 7.352652 0.029353
v -0.735152 6.142313 0.029353
v -4.256087 5.242769 0.064935
v -4.256087 5.974994 0.065951
v -4.256087 5.975198 0.029872
v -4.256088 5.242973 0.028857
v 4.244473 5.242974 0.028848
v 4.244473 5.975198 0.029863
v 4.244472 5.974994 0.065942
v 4.244473 5.242770 0.064927
v 2.150491 5.975187 0.029833
v 2.150491 5.242940 0.028917
v 2.150491 5.974990 0.065912
v 2.150491 5.242770 0.065019
v -2.148501 5.974991 0.065901
v -2.148501 5.242770 0.064995
v -2.148501 5.975187 0.029822
v -2.148501 5.242930 0.028940
v 0.308668 1.766851 0.083917
v 1.107510 1.767506 0.046507
v 0.307041 1.766759 0.047866
v 1.105799 1.767411 0.010468
v -1.119104 1.799596 0.045936
v -0.320271 1.798941 0.083313
v -1.117393 1.799502 0.009897
v -0.318635 1.798850 0.047282
vn 0.0002 1.0000 0.0007
vn -0.0000 -0.0000 1.0000
vn 0.0004 0.0015 1.0000
vn -0.0000 -0.0012 1.0000
vn -0.9989 -0.0000 -0.0474
vn -0.0001 -0.0000 -1.0000
vn 0.9989 -0.0000 -0.0474
vn -0.0060 -0.0028 -1.0000
vn 0.0041 0.0133 0.9999
vn 0.0168 -0.0085 0.9998
vn -0.0005 -0.0017 -1.0000
vn -0.0462 -0.0037 -0.9989
vn -0.0000 -1.0000 0.0019
vn -0.0060 -0.0134 -0.9999
vn -0.0000 -0.0000 -1.0000
vn 0.0183 0.0084 -0.9998
vn -0.0182 -0.0084 0.9998
vn 0.0183 0.0149 -0.9997
vn -0.0005 0.0015 1.0000
vn -0.0003 -1.0000 0.0018
vn 0.0001 1.0000 -0.0000
vn -0.0000 1.0000 0.0053
vn -0.0140 -0.0120 -0.9998
vn -0.0023 -0.0027 -1.0000
vn 0.0008 0.0120 0.9999
vn 0.0002 0.0018 1.0000
vn -0.0002 -0.0000 1.0000
vn -0.0002 -0.0000 -1.0000
vn 0.0007 -0.0002 1.0000
vn -0.0007 0.0010 -1.0000
vn -0.0005 0.0002 -1.0000
vn 0.9998 -0.0007 -0.0192
vn -0.0007 -0.0002 1.0000
vn -0.9998 -0.0007 -0.0204
vn -0.0010 -1.0000 0.0026
vn -0.0467 0.0007 0.9989
vn -0.9989 0.0002 -0.0474
vn 0.0468 -0.0007 -0.9989
vn 0.9990 -0.0002 0.0454
vn 0.0010 -1.0000 0.0027
vn 0.0468 0.0007 0.9989
vn -0.9990 -0.0002 0.0451
vn -0.0468 -0.0007 -0.9989
vn 0.9989 0.0002 -0.0474
vn -0.0000 1.0000 0.0054
vn 0.0001 0.0012 -1.0000
vn -0.0000 -1.0000 -0.0045
vn -0.0000 0.0013 -1.0000
vn -0.0000 1.0000 0.0055
vn -0.0000 -1.0000 -0.0047
vn -0.0038 0.0137 0.9999
vn 0.0022 -0.0142 -0.9999
vn -0.0000 1.0000 0.0007
vn 0.0002 -1.0000 0.0023
vn 0.0002 -0.0000 1.0000
vn -0.0002 0.0001 -1.0000
vn -0.0000 1.0000 -0.0000
vn -0.0000 -1.0000 0.0017
vn 0.0025 -0.0112 -0.9999
vn -0.0011 0.0115 0.9999
vn 0.0001 -0.0017 -1.0000
vn -0.0002 0.0019 1.0000
vn -1.0000 -0.0000 -0.0000
vn 1.0000 -0.0000 -0.0000
vn -0.0000 -1.0000 -0.0000
vn -0.0000 -0.0014 1.0000
vn -0.0000 1.0000 0.0057
vn -0.0000 0.0014 -1.0000
vn -0.0000 -1.0000 -0.0057
vn -0.0000 -1.0000 -0.0037
vn -0.0000 -0.0010 1.0000
vn -0.0001 0.0011 -1.0000
vn -0.0000 -1.0000 -0.0032
vn 0.0001 0.0010 -1.0000
vn -0.0000 1.0000 0.0052
vn -0.0000 -0.0011 1.0000
vn -0.0462 -0.0006 -0.9989
vn -0.9991 -0.0002 0.0427
vn 0.0462 0.0006 0.9989
vn 0.9991 -0.0002 0.0431
vn 0.0461 -0.0006 -0.9989
vn -0.0461 0.0006 0.9989
vn 0.0168 -0.0137 0.9998
vn -0.9998 0.0005 -0.0204
vn 0.0041 0.0019 1.0000
vn 0.9998 0.0005 -0.0192
vn 0.0001 -0.0000 -1.0000
vn -0.0003 0.0138 0.9999
vn 0.0462 0.0038 0.9989
vn -0.0170 0.0136 -0.9998
vn -0.0170 0.0085 -0.9998
vn -0.0001 -1.0000 0.0017
vn 0.0011 -0.0142 -0.9999
vn 0.0461 -0.0032 -0.9989
vn -0.0461 0.0033 0.9989
vn 0.0004 -0.0017 -1.0000
vn -0.0182 -0.0148 0.9997
vn -0.0002 -1.0000 0.0023
vn -0.0003 1.0000 0.0007
vn -0.0023 -0.0117 -0.9999
vn -0.0002 -0.0017 -1.0000
vn 0.0117 0.0123 0.9999
vn 0.0008 0.0015 1.0000
vn 0.0002 -0.0002 1.0000
vn 0.0002 0.0002 -1.0000
vn -0.0005 -0.0011 1.0000
vn 0.0004 0.0001 -1.0000
vn 0.0007 0.0011 -1.0000
vn 1.0000 0.0002 -0.0000
vn 0.0004 -0.0010 1.0000
vn -1.0000 0.0002 -0.0000
vn -0.0010 -1.0000 0.0027
vn -0.0474 0.0010 0.9989
vn 0.0474 -0.0010 -0.9989
vn 0.9989 -0.0002 0.0474
vn 0.0474 0.0010 0.9989
vn -0.9989 -0.0003 0.0474
vn -0.0474 -0.0010 -0.9989
vn -0.0000 1.0000 0.0056
vn 0.0001 -0.0014 1.0000
vn -0.0038 0.0017 1.0000
vn -0.0029 0.0138 0.9999
vn 0.0057 -0.0027 -1.0000
vn 0.0057 -0.0138 -0.9999
vn -0.0001 1.0000 -0.0000
vn 0.0003 -1.0000 0.0018
vn -0.0002 -0.0002 1.0000
vn -0.0000 -1.0000 0.0018
vn 0.0143 -0.0115 -0.9998
vn -0.0125 0.0118 0.9999
vn 0.0025 -0.0028 -1.0000
vn -0.0011 0.0015 1.0000
vn 0.0001 -0.0012 1.0000
vn -0.0000 0.0012 -1.0000
vn -0.0001 -0.0012 1.0000
vn -0.0468 -0.0009 -0.9989
vn 0.0468 0.0009 0.9989
vn 0.0468 -0.0009 -0.9989
vn -0.0467 0.0010 0.9989
vt 0.118133 0.803362
vt 0.135691 0.830431
vt 0.118133 0.830431
vt 0.274539 0.196516
vt 0.234701 0.154102
vt 0.250265 0.146542
vt 0.263358 0.252702
vt 0.212283 0.226756
vt 0.243411 0.211636
vt 0.456478 0.046377
vt 0.394452 0.138270
vt 0.370178 0.088296
vt 0.047902 0.765535
vt 0.065460 0.686369
vt 0.065460 0.765535
vt 0.752836 0.419377
vt 0.744126 0.476911
vt 0.728562 0.469351
vt 0.290103 0.188956
vt 0.294486 0.237582
vt 0.083018 0.765535
vt 0.712998 0.461791
vt 0.708615 0.510417
vt 0.693051 0.502857
vt 0.347459 0.324371
vt 0.310050 0.230022
vt 0.276451 0.358862
vt 0.232230 0.267822
vt 0.790818 0.499590
vt 0.739743 0.525537
vt 0.759690 0.484471
vt 0.726649 0.631696
vt 0.681898 0.609959
vt 0.363943 0.665880
vt 0.381501 0.673491
vt 0.363943 0.673491
vt 0.655641 0.597205
vt 0.798506 0.325355
vt 0.773946 0.415519
vt 0.758382 0.407959
vt 0.677487 0.495297
vt 0.602138 0.571216
vt 0.646359 0.480177
vt 0.400963 0.298382
vt 0.325614 0.222462
vt 0.356742 0.207342
vt 0.666306 0.439111
vt 0.336795 0.166276
vt 0.305667 0.181396
vt 0.363943 0.650659
vt 0.381501 0.658269
vt 0.363943 0.658269
vt 0.135691 0.843965
vt 0.118133 0.843965
vt 0.135691 0.691261
vt 0.153249 0.664193
vt 0.153249 0.691261
vt 0.724179 0.517977
vt 0.673146 0.605707
vt 0.278922 0.245142
vt 0.321203 0.337124
vt 0.258975 0.204076
vt 0.219137 0.161662
vt 0.768400 0.426937
vt 0.312521 0.116302
vt 0.281393 0.131422
vt 0.721708 0.404257
vt 0.690580 0.389137
vt 0.783964 0.434497
vt 0.737272 0.411817
vt 0.265829 0.138982
vt 0.065460 0.650659
vt 0.083018 0.686369
vt 0.188009 0.176782
vt 0.047902 0.686369
vt 0.293711 0.650659
vt 0.311269 0.689574
vt 0.293711 0.689574
vt 0.512402 0.527804
vt 0.406202 0.423036
vt 0.450953 0.401298
vt 0.065460 0.965035
vt 0.047902 0.855029
vt 0.065460 0.855029
vt 0.596899 0.695870
vt 0.490699 0.800639
vt 0.552147 0.674133
vt 0.100576 0.740153
vt 0.083018 0.850159
vt 0.083018 0.740153
vt 0.328827 0.650659
vt 0.328827 0.689574
vt 0.372256 0.442230
vt 0.387890 0.588284
vt 0.327505 0.463968
vt 0.118133 0.850159
vt 0.100576 0.742057
vt 0.118133 0.742057
vt 0.615211 0.861119
vt 0.630844 0.715065
vt 0.675596 0.736802
vt 0.083018 0.856933
vt 0.065460 0.856933
vt 0.118133 0.678180
vt 0.135691 0.753224
vt 0.118133 0.753224
vt 0.522348 0.369185
vt 0.632922 0.361130
vt 0.608648 0.411104
vt 0.153249 0.678180
vt 0.170807 0.753224
vt 0.153249 0.753224
vt 0.873511 0.477993
vt 0.934776 0.569516
vt 0.849237 0.527967
vt 0.153249 0.742061
vt 0.135691 0.816443
vt 0.135691 0.742061
vt 0.153863 0.255132
vt 0.044051 0.246708
vt 0.129589 0.205159
vt 0.188365 0.701459
vt 0.170807 0.775841
vt 0.170807 0.701459
vt 0.329955 0.332873
vt 0.664393 0.601456
vt 0.135691 0.664193
vt 0.153249 0.650659
vt 0.363943 0.681101
vt 0.381501 0.681101
vt 0.697434 0.454231
vt 0.346385 0.664193
vt 0.328827 0.664193
vt 0.381501 0.665880
vt 0.646889 0.592954
vt 0.356211 0.320119
vt 0.814070 0.332915
vt 0.799199 0.427786
vt 0.188365 0.722489
vt 0.205922 0.732418
vt 0.188365 0.732418
vt 0.244719 0.135125
vt 0.416616 0.668217
vt 0.426545 0.650659
vt 0.426545 0.668217
vt 0.223480 0.650659
vt 0.241038 0.722489
vt 0.223480 0.722489
vt 0.426545 0.668217
vt 0.436473 0.650659
vt 0.436473 0.668217
vt 0.205922 0.732418
vt 0.223480 0.722489
vt 0.223480 0.732418
vt 0.188365 0.650659
vt 0.205922 0.722489
vt 0.229155 0.142685
vt 0.204595 0.052521
vt 0.346385 0.672618
vt 0.363943 0.686152
vt 0.346385 0.686152
vt 0.742818 0.400399
vt 0.260283 0.127565
vt 0.205922 0.722489
vt 0.223480 0.650659
vt 0.203902 0.154951
vt 0.189031 0.060080
vt 0.399058 0.672618
vt 0.381501 0.650659
vt 0.399058 0.650659
vt 0.241038 0.650659
vt 0.258596 0.722489
vt 0.241038 0.722489
vt 0.220159 0.044961
vt 0.285536 0.115298
vt 0.346385 0.650659
vt 0.363943 0.672618
vt 0.717565 0.388133
vt 0.782942 0.317795
vt 0.416616 0.650659
vt 0.416616 0.672618
vt 0.258596 0.694115
vt 0.276154 0.650659
vt 0.276154 0.694115
vt 0.512402 0.080978
vt 0.480752 0.096351
vt 0.118133 0.650659
vt 0.135691 0.678180
vt 0.490699 0.353812
vt 0.546622 0.319212
vt 0.170807 0.650659
vt 0.170807 0.678180
vt 0.293711 0.694115
vt 0.959050 0.519542
vt 0.966425 0.584889
vt 0.153249 0.816443
vt 0.036676 0.312055
vt 0.068325 0.296681
vt 0.188365 0.803363
vt 0.188365 0.775841
vt 0.815092 0.449617
vt 0.170807 0.803363
vt 0.153249 0.803363
vt 0.135691 0.803362
vt 0.100576 0.650659
vt 0.118133 0.650659
vt 0.083018 0.650659
vt 0.338707 0.328622
vt 0.770871 0.540657
vt 0.047902 0.650659
vt 0.311269 0.650659
vt 0.467650 0.549542
vt 0.047902 0.965035
vt 0.535451 0.822376
vt 0.100576 0.850159
vt 0.311269 0.650659
vt 0.432641 0.566547
vt 0.570459 0.839381
vt 0.083018 0.965035
vt 0.135691 0.650659
vt 0.839323 0.345181
vt 0.416616 0.650659
vt 0.241038 0.650659
vt 0.426545 0.650659
vt 0.205922 0.650659
vt 0.205922 0.650659
vt 0.328827 0.686152
vt 0.163778 0.072347
vt 0.381501 0.672618
vt 0.258596 0.650659
vt 0.245412 0.032694
vt 0.757689 0.305529
vt 0.258596 0.650659
vt 0.488128 0.031004
vt 0.514973 0.303838
vt 0.153249 0.650659
vt 0.293711 0.650659
vt 0.990699 0.534915
vt 0.153249 0.843965
vt 0.012402 0.262081
s 0
usemtl Material
f 7/1/1 22/2/1 19/3/1
f 36/4/2 58/5/2 17/6/2
f 25/7/3 33/8/3 40/9/3
f 50/10/4 110/11/4 109/12/4
f 4/13/5 14/14/5 8/15/5
f 13/16/6 64/17/6 35/18/6
f 72/19/2 16/20/2 36/4/2
f 9/14/7 2/21/7 6/15/7
f 71/22/8 18/23/8 70/24/8
f 67/25/9 16/20/9 66/26/9
f 25/7/10 2/27/10 15/28/10
f 31/29/11 26/30/11 39/31/11
f 26/30/12 6/32/12 30/33/12
f 11/34/13 59/35/13 62/36/13
f 18/23/14 68/37/14 70/24/14
f 82/38/15 73/39/15 74/40/15
f 23/41/16 8/42/16 14/43/16
f 4/44/17 20/45/17 12/46/17
f 32/47/18 23/41/18 14/43/18
f 34/48/19 20/45/19 38/49/19
f 24/50/20 68/51/20 67/52/20
f 19/3/21 69/53/21 65/54/21
f 5/55/22 29/56/22 1/57/22
f 57/58/23 30/33/23 59/59/23
f 64/17/24 26/30/24 57/58/24
f 60/60/25 28/61/25 25/7/25
f 60/60/26 40/9/26 63/62/26
f 63/62/27 29/63/27 58/5/27
f 61/64/28 39/31/28 64/17/28
f 3/65/29 38/49/29 22/66/29
f 19/67/30 32/47/30 7/68/30
f 27/69/31 31/29/31 39/31/31
f 13/16/15 71/22/15 65/70/15
f 69/71/2 36/4/2 17/6/2
f 31/72/32 15/73/32 9/14/32
f 40/9/33 1/74/33 29/63/33
f 12/75/34 32/72/34 14/14/34
f 42/76/35 44/77/35 41/78/35
f 42/79/36 118/80/36 117/81/36
f 43/82/37 117/83/37 119/84/37
f 120/85/38 43/86/38 119/87/38
f 118/88/39 44/89/39 120/90/39
f 45/77/40 47/91/40 48/92/40
f 113/93/41 45/94/41 114/95/41
f 47/96/42 113/97/42 115/98/42
f 48/99/43 115/100/43 116/101/43
f 114/102/44 48/82/44 116/103/44
f 51/104/45 109/105/45 111/106/45
f 52/107/46 111/108/46 112/109/46
f 49/110/47 112/111/47 110/112/47
f 105/113/48 53/114/48 106/115/48
f 107/116/49 54/117/49 105/118/49
f 108/119/4 55/120/4 107/121/4
f 106/122/50 56/123/50 108/124/50
f 16/20/2 63/62/2 36/4/2
f 16/20/51 62/125/51 60/60/51
f 64/17/6 18/23/6 35/18/6
f 18/23/52 59/59/52 10/126/52
f 27/127/53 58/128/53 29/56/53
f 28/129/54 59/35/54 30/130/54
f 22/66/55 72/19/55 69/71/55
f 65/70/56 37/131/56 19/67/56
f 82/91/57 84/132/57 81/133/57
f 67/52/58 10/134/58 11/34/58
f 70/24/59 21/135/59 23/41/59
f 24/136/60 66/26/60 20/45/60
f 71/22/61 23/41/61 37/131/61
f 38/49/62 66/26/62 72/19/62
f 81/137/15 89/138/15 73/39/15
f 74/40/15 61/64/15 13/16/15
f 75/139/63 13/140/63 17/141/63
f 58/5/2 75/142/2 17/6/2
f 73/143/64 58/144/64 61/145/64
f 90/146/64 92/147/64 89/148/64
f 65/70/15 77/40/15 13/16/15
f 79/149/63 65/150/63 69/151/63
f 80/142/2 69/71/2 17/6/2
f 13/152/64 80/153/64 17/154/64
f 83/155/63 74/156/63 75/139/63
f 76/157/2 83/158/2 75/142/2
f 86/159/57 88/160/57 85/161/57
f 78/162/15 85/38/15 77/40/15
f 88/158/2 79/163/2 80/142/2
f 77/164/64 88/165/64 80/153/64
f 91/161/57 81/133/57 84/132/57
f 92/166/2 84/167/2 76/157/2
f 89/168/65 76/169/65 73/170/65
f 94/171/63 96/172/63 93/173/63
f 87/174/2 93/175/2 79/163/2
f 95/176/57 87/177/57 86/159/57
f 96/178/15 86/179/15 78/162/15
f 79/168/65 96/180/65 78/181/65
f 97/182/63 99/183/63 100/184/63
f 50/10/66 97/185/66 49/186/66
f 99/187/67 50/188/67 51/104/67
f 100/189/68 51/190/68 52/107/68
f 49/110/69 100/191/69 52/192/69
f 102/183/64 104/193/64 101/184/64
f 54/194/68 101/195/68 53/114/68
f 55/196/67 102/53/67 54/117/67
f 104/197/66 55/120/66 56/198/66
f 101/199/69 56/123/69 53/200/69
f 31/155/70 108/124/70 33/191/70
f 33/8/71 107/121/71 1/74/71
f 1/57/22 105/118/22 5/55/22
f 5/201/72 106/115/72 31/29/72
f 110/112/73 32/202/73 34/203/73
f 112/109/74 7/68/74 32/47/74
f 111/106/75 3/204/75 7/1/75
f 109/12/76 34/48/76 3/65/76
f 2/21/44 116/103/44 6/15/44
f 116/101/77 30/33/77 6/32/77
f 115/98/78 28/205/78 30/206/78
f 28/61/79 114/95/79 2/27/79
f 24/205/80 120/90/80 21/207/80
f 21/135/81 119/87/81 8/42/81
f 119/84/37 4/13/37 8/15/37
f 117/81/82 24/136/82 4/44/82
f 7/1/75 3/204/75 22/2/75
f 36/4/2 63/62/2 58/5/2
f 25/7/83 15/28/83 33/8/83
f 50/10/66 49/186/66 110/11/66
f 4/13/84 12/75/84 14/14/84
f 13/16/15 61/64/15 64/17/15
f 72/19/85 66/26/85 16/20/85
f 9/14/86 15/73/86 2/21/86
f 71/22/87 35/18/87 18/23/87
f 67/25/88 11/208/88 16/20/88
f 25/7/89 28/61/89 2/27/89
f 31/29/90 9/209/90 26/30/90
f 26/30/91 9/209/91 6/32/91
f 11/34/92 10/134/92 59/35/92
f 18/23/93 10/126/93 68/37/93
f 82/38/15 81/137/15 73/39/15
f 23/41/94 21/135/94 8/42/94
f 4/44/95 24/136/95 20/45/95
f 32/47/96 37/131/96 23/41/96
f 34/48/97 12/46/97 20/45/97
f 24/50/98 21/169/98 68/51/98
f 19/3/53 22/2/53 69/53/53
f 5/55/99 27/127/99 29/56/99
f 57/58/100 26/30/100 30/33/100
f 64/17/101 39/31/101 26/30/101
f 60/60/102 62/125/102 28/61/102
f 60/60/103 25/7/103 40/9/103
f 63/62/104 40/9/104 29/63/104
f 61/64/105 27/69/105 39/31/105
f 3/65/106 34/48/106 38/49/106
f 19/67/107 37/131/107 32/47/107
f 27/69/108 5/201/108 31/29/108
f 13/16/87 35/18/87 71/22/87
f 69/71/2 72/19/2 36/4/2
f 31/72/109 33/207/109 15/73/109
f 40/9/110 33/8/110 1/74/110
f 12/75/111 34/210/111 32/72/111
f 42/76/112 43/211/112 44/77/112
f 42/79/113 41/212/113 118/80/113
f 43/82/37 42/213/37 117/83/37
f 120/85/114 44/214/114 43/86/114
f 118/88/115 41/215/115 44/89/115
f 45/77/40 46/216/40 47/91/40
f 113/93/116 46/217/116 45/94/116
f 47/96/117 46/215/117 113/97/117
f 48/99/118 47/218/118 115/100/118
f 114/102/44 45/219/44 48/82/44
f 51/104/67 50/188/67 109/105/67
f 52/107/68 51/190/68 111/108/68
f 49/110/69 52/192/69 112/111/69
f 105/113/68 54/194/68 53/114/68
f 107/116/119 55/196/119 54/117/119
f 108/119/120 56/198/120 55/120/120
f 106/122/69 53/200/69 56/123/69
f 16/20/121 60/60/121 63/62/121
f 16/20/122 11/208/122 62/125/122
f 64/17/123 57/58/123 18/23/123
f 18/23/124 57/58/124 59/59/124
f 27/127/125 61/220/125 58/128/125
f 28/129/126 62/36/126 59/35/126
f 22/66/127 38/49/127 72/19/127
f 65/70/87 71/22/87 37/131/87
f 82/91/57 83/176/57 84/132/57
f 67/52/128 68/51/128 10/134/128
f 70/24/129 68/37/129 21/135/129
f 24/136/130 67/25/130 66/26/130
f 71/22/131 70/24/131 23/41/131
f 38/49/132 20/45/132 66/26/132
f 81/137/15 90/221/15 89/138/15
f 74/40/15 73/39/15 61/64/15
f 75/139/63 74/156/63 13/140/63
f 58/5/2 76/157/2 75/142/2
f 73/143/64 76/222/64 58/144/64
f 90/146/64 91/223/64 92/147/64
f 65/70/15 78/162/15 77/40/15
f 79/149/63 78/224/63 65/150/63
f 80/142/2 79/163/2 69/71/2
f 13/152/64 77/164/64 80/153/64
f 83/155/63 82/225/63 74/156/63
f 76/157/2 84/167/2 83/158/2
f 86/159/57 87/177/57 88/160/57
f 78/162/15 86/179/15 85/38/15
f 88/158/2 87/174/2 79/163/2
f 77/164/64 85/226/64 88/165/64
f 91/161/57 90/227/57 81/133/57
f 92/166/2 91/228/2 84/167/2
f 89/168/65 92/229/65 76/169/65
f 94/171/63 95/230/63 96/172/63
f 87/174/2 94/231/2 93/175/2
f 95/176/57 94/50/57 87/177/57
f 96/178/15 95/232/15 86/179/15
f 79/168/65 93/170/65 96/180/65
f 97/182/63 98/233/63 99/183/63
f 50/10/66 98/234/66 97/185/66
f 99/187/67 98/220/67 50/188/67
f 100/189/68 99/235/68 51/190/68
f 49/110/69 97/236/69 100/191/69
f 102/183/64 103/237/64 104/193/64
f 54/194/68 102/238/68 101/195/68
f 55/196/67 103/239/67 102/53/67
f 104/197/66 103/240/66 55/120/66
f 101/199/69 104/202/69 56/123/69
f 31/155/50 106/122/50 108/124/50
f 33/8/133 108/119/133 107/121/133
f 1/57/49 107/116/49 105/118/49
f 5/201/48 105/113/48 106/115/48
f 110/112/47 112/111/47 32/202/47
f 112/109/134 111/108/134 7/68/134
f 111/106/45 109/105/45 3/204/45
f 109/12/135 110/11/135 34/48/135
f 2/21/44 114/102/44 116/103/44
f 116/101/136 115/100/136 30/33/136
f 115/98/42 113/97/42 28/205/42
f 28/61/137 113/93/137 114/95/137
f 24/205/39 118/88/39 120/90/39
f 21/135/138 120/85/138 119/87/138
f 119/84/37 117/83/37 4/13/37
f 117/81/139 118/80/139 24/136/139
