# Blender 4.4.1
# www.blender.org
mtllib weeds.mtl
o Cube
v -1.131000 -0.005000 0.000000
v -1.131000 0.005000 -0.000000
v -1.131000 -0.005000 -1.200001
v -1.131000 0.005000 -1.200001
v 1.131000 -0.005000 0.000000
v 1.131000 0.005000 -0.000000
v 1.131000 -0.005000 -1.200001
v 1.131000 0.005000 -1.200001
vn -1.0000 -0.0000 -0.0000
vn -0.0000 -0.0000 -1.0000
vn 1.0000 -0.0000 -0.0000
vn -0.0000 -0.0000 1.0000
vn -0.0000 -1.0000 -0.0000
vn -0.0000 1.0000 -0.0000
vt 0.500000 0.959051
vt 0.149835 0.956133
vt 0.500000 0.956133
vt 0.190104 0.888831
vt 0.850165 0.891749
vt 0.190104 0.891749
vt 0.850165 0.934497
vt 0.500000 0.931579
vt 0.850165 0.931579
vt 0.190104 0.913842
vt 0.850165 0.916760
vt 0.190104 0.916760
vt 0.190104 0.489450
vt 0.850165 0.139285
vt 0.850165 0.489450
vt 0.850165 0.489446
vt 0.190104 0.139281
vt 0.190104 0.489446
vt 0.149835 0.959051
vt 0.850165 0.888831
vt 0.500000 0.934497
vt 0.850165 0.913842
vt 0.190104 0.139285
vt 0.850165 0.139281
s 1
usemtl Material.001
f 2/1/1 3/2/1 1/3/1
f 4/4/2 7/5/2 3/6/2
f 8/7/3 5/8/3 7/9/3
f 6/10/4 1/11/4 5/12/4
f 7/13/5 1/14/5 3/15/5
f 4/16/6 6/17/6 8/18/6
f 2/1/1 4/19/1 3/2/1
f 4/4/2 8/20/2 7/5/2
f 8/7/3 6/21/3 5/8/3
f 6/10/4 2/22/4 1/11/4
f 7/13/5 5/23/5 1/14/5
f 4/16/6 2/24/6 6/17/6
