# Blender 4.4.1
# www.blender.org
mtllib tree.mtl
o Cube
v -1.950000 -0.005000 0.000000
v -1.950000 0.005000 -0.000000
v -1.950000 -0.005001 -12.000000
v -1.950000 0.004999 -12.000000
v 1.950000 -0.005000 0.000000
v 1.950000 0.005000 -0.000000
v 1.950000 -0.005001 -12.000000
v 1.950000 0.004999 -12.000000
vn -1.0000 -0.0000 -0.0000
vn -0.0000 -0.0000 -1.0000
vn 1.0000 -0.0000 -0.0000
vn -0.0000 -0.0000 1.0000
vn -0.0000 -1.0000 -0.0000
vn -0.0000 1.0000 -0.0000
vt 0.763164 1.000000
vt 0.763998 -0.000000
vt 0.763998 1.000000
vt 0.764831 0.325000
vt 0.765664 -0.000000
vt 0.765664 0.325000
vt 0.764831 0.000000
vt 0.764831 1.000000
vt 0.764831 0.650000
vt 0.765664 0.650000
vt 0.325000 1.000000
vt 0.000000 0.000000
vt 0.000000 1.000000
vt -0.001172 1.000000
vt 0.323828 0.000000
vt 0.323828 1.000000
vt 0.763164 -0.000000
vt 0.325000 0.000000
vt -0.001172 0.000000
s 1
usemtl Material.001
f 2/1/1 3/2/1 1/3/1
f 4/4/2 7/5/2 3/6/2
f 8/3/3 5/7/3 7/8/3
f 6/9/4 1/6/4 5/10/4
f 7/11/5 1/12/5 3/13/5
f 4/14/6 6/15/6 8/16/6
f 2/1/1 4/17/1 3/2/1
f 4/4/2 8/7/2 7/5/2
f 8/3/3 6/2/3 5/7/3
f 6/9/4 2/4/4 1/6/4
f 7/11/5 5/18/5 1/12/5
f 4/14/6 2/19/6 6/15/6
