# Blender 4.1.1
# www.blender.org
mtllib gun.mtl
o Cube
v -0.701389 5.839516 -0.856980
v -0.701389 7.839516 -0.856980
v -0.701389 7.839516 -7.666412
v 0.812391 5.839516 -0.856980
v 0.812391 7.839516 -0.856980
v 0.812391 7.839516 -7.666412
v -0.701389 5.839516 -3.233394
v -0.701389 6.476462 -3.233394
v -0.701389 6.476462 -7.666412
v 0.812391 6.476462 -7.666412
v 0.812391 5.839516 -3.233394
v 0.812391 6.476462 -3.233394
v 0.082867 6.925947 -7.001996
v 0.082867 6.925947 -8.041996
v 0.160903 6.933633 -7.001996
v 0.160903 6.933633 -8.041996
v 0.235940 6.956395 -7.001996
v 0.235940 6.956395 -8.041996
v 0.305095 6.993359 -7.001996
v 0.305095 6.993359 -8.041996
v 0.365710 7.043104 -7.001996
v 0.365710 7.043104 -8.041996
v 0.415455 7.103719 -7.001996
v 0.415455 7.103719 -8.041996
v 0.452419 7.172873 -7.001996
v 0.452419 7.172873 -8.041996
v 0.475181 7.247911 -7.001996
v 0.475181 7.247911 -8.041996
v 0.482867 7.325947 -7.001996
v 0.482867 7.325947 -8.041996
v 0.475181 7.403983 -7.001996
v 0.475181 7.403983 -8.041996
v 0.452419 7.479021 -7.001996
v 0.452419 7.479021 -8.041996
v 0.415455 7.548175 -7.001996
v 0.415455 7.548175 -8.041996
v 0.365710 7.608790 -7.001996
v 0.365710 7.608790 -8.041996
v 0.305095 7.658535 -7.001996
v 0.305095 7.658535 -8.041996
v 0.235940 7.695499 -7.001996
v 0.235940 7.695499 -8.041996
v 0.160903 7.718261 -7.001996
v 0.160903 7.718261 -8.041996
v 0.082867 7.725947 -7.001996
v 0.082867 7.725947 -8.041996
v 0.004831 7.718261 -7.001996
v 0.004831 7.718261 -8.041996
v -0.070206 7.695499 -7.001996
v -0.070206 7.695499 -8.041996
v -0.139361 7.658535 -7.001996
v -0.139361 7.658535 -8.041996
v -0.199976 7.608790 -7.001996
v -0.199976 7.608790 -8.041996
v -0.249721 7.548175 -7.001996
v -0.249721 7.548175 -8.041996
v -0.286685 7.479021 -7.001996
v -0.286685 7.479021 -8.041996
v -0.309447 7.403983 -7.001996
v -0.309447 7.403983 -8.041996
v -0.317133 7.325947 -7.001996
v -0.317133 7.325947 -8.041996
v -0.309447 7.247911 -7.001996
v -0.309447 7.247911 -8.041996
v -0.286685 7.172873 -7.001996
v -0.286685 7.172873 -8.041996
v -0.249721 7.103719 -7.001996
v -0.249721 7.103719 -8.041996
v -0.199976 7.043104 -7.001996
v -0.199976 7.043104 -8.041996
v -0.139361 6.993359 -7.001996
v -0.139361 6.993359 -8.041996
v -0.070206 6.956395 -7.001996
v -0.070206 6.956395 -8.041996
v 0.004831 6.933633 -7.001996
v 0.004831 6.933633 -8.041996
v -0.082388 7.084306 -8.041996
v 0.025756 7.039511 -8.041996
v -0.030522 7.056583 -8.041996
v -0.209953 7.392274 -8.041996
v -0.165158 7.500418 -8.041996
v -0.192881 7.448552 -8.041996
v 0.084283 7.633747 -8.041996
v 0.142810 7.627982 -8.041996
v 0.250954 7.583188 -8.041996
v 0.296415 7.545878 -8.041996
v 0.199088 7.610910 -8.041996
v 0.333724 7.167076 -8.041996
v 0.378518 7.275219 -8.041996
v 0.361447 7.218942 -8.041996
v -0.215717 7.333746 -8.041996
v -0.209953 7.275219 -8.041996
v -0.192881 7.218942 -8.041996
v -0.165158 7.167076 -8.041996
v -0.127849 7.545878 -8.041996
v -0.127849 7.121614 -8.041996
v -0.082388 7.583188 -8.041996
v 0.084283 7.033747 -8.041996
v 0.142810 7.039511 -8.041996
v -0.030522 7.610910 -8.041996
v 0.025756 7.627982 -8.041996
v 0.250954 7.084306 -8.041996
v 0.199088 7.056583 -8.041996
v 0.333724 7.500418 -8.041996
v 0.378518 7.392274 -8.041996
v 0.384283 7.333746 -8.041996
v 0.361447 7.448552 -8.041996
v 0.296415 7.121614 -8.041996
v 0.199088 7.056583 -7.001996
v 0.296415 7.121614 -7.001996
v 0.250954 7.084306 -7.001996
v 0.296415 7.545878 -7.001996
v 0.361447 7.448552 -7.001996
v 0.333724 7.500418 -7.001996
v -0.165158 7.500418 -7.001996
v -0.127849 7.545878 -7.001996
v 0.025756 7.627982 -7.001996
v -0.030522 7.610910 -7.001996
v -0.082388 7.583188 -7.001996
v -0.192881 7.218942 -7.001996
v -0.127849 7.121614 -7.001996
v -0.165158 7.167076 -7.001996
v 0.084283 7.033747 -7.001996
v 0.142810 7.039511 -7.001996
v 0.199088 7.610910 -7.001996
v 0.361447 7.218942 -7.001996
v 0.333724 7.167076 -7.001996
v 0.384283 7.333746 -7.001996
v 0.378518 7.392274 -7.001996
v 0.378518 7.275219 -7.001996
v 0.250954 7.583188 -7.001996
v -0.215717 7.333746 -7.001996
v -0.209953 7.392274 -7.001996
v -0.209953 7.275219 -7.001996
v -0.192881 7.448552 -7.001996
v 0.025756 7.039511 -7.001996
v -0.030522 7.056583 -7.001996
v -0.082388 7.084306 -7.001996
v 0.142810 7.627982 -7.001996
v 0.084283 7.633747 -7.001996
vn -1.0000 -0.0000 -0.0000
vn -0.0000 -0.0000 -1.0000
vn 1.0000 -0.0000 -0.0000
vn -0.0000 -0.0000 1.0000
vn -0.0000 -1.0000 -0.0000
vn -0.0000 1.0000 -0.0000
vn 0.0980 -0.9952 -0.0000
vn 0.2903 -0.9569 -0.0000
vn 0.4714 -0.8819 -0.0000
vn 0.6344 -0.7730 -0.0000
vn 0.7730 -0.6344 -0.0000
vn 0.8819 -0.4714 -0.0000
vn 0.9569 -0.2903 -0.0000
vn 0.9952 -0.0980 -0.0000
vn 0.9952 0.0980 -0.0000
vn 0.9569 0.2903 -0.0000
vn 0.8819 0.4714 -0.0000
vn 0.7730 0.6344 -0.0000
vn 0.6344 0.7730 -0.0000
vn 0.4714 0.8819 -0.0000
vn 0.2903 0.9569 -0.0000
vn 0.0980 0.9952 -0.0000
vn -0.0980 0.9952 -0.0000
vn -0.2903 0.9569 -0.0000
vn -0.4714 0.8819 -0.0000
vn -0.6344 0.7730 -0.0000
vn -0.7730 0.6344 -0.0000
vn -0.8819 0.4714 -0.0000
vn -0.9569 0.2903 -0.0000
vn -0.9952 0.0980 -0.0000
vn -0.9952 -0.0980 -0.0000
vn -0.9569 -0.2903 -0.0000
vn -0.8819 -0.4714 -0.0000
vn -0.7730 -0.6344 -0.0000
vn -0.6344 -0.7730 -0.0000
vn -0.4714 -0.8819 -0.0000
vn -0.2903 -0.9569 -0.0000
vn -0.0980 -0.9952 -0.0000
vn -0.0000 0.0001 -1.0000
vn -0.0000 -0.0001 1.0000
vt 0.330906 0.000223
vt 0.218221 0.165564
vt 0.218221 0.057925
vt 0.330906 0.165564
vt 0.218221 0.330906
vt 0.330906 0.330906
vt 0.165564 0.496248
vt 0.218221 0.438545
vt 0.330906 0.496248
vt 0.165564 0.661590
vt 0.000223 0.496248
vt 0.165564 0.438545
vt 0.496248 0.330906
vt 0.802559 0.787180
vt 0.758559 0.662035
vt 0.758559 0.787180
vt 0.758114 0.824322
vt 0.632968 0.662035
vt 0.632968 0.824322
vt 0.496693 0.000223
vt 0.827377 0.020890
vt 0.496693 0.020890
vt 0.496693 0.041558
vt 0.827377 0.041558
vt 0.496693 0.062226
vt 0.827377 0.082893
vt 0.496693 0.082893
vt 0.827377 0.103561
vt 0.496693 0.103561
vt 0.827377 0.124229
vt 0.496693 0.124229
vt 0.496693 0.144897
vt 0.827377 0.165564
vt 0.496693 0.165564
vt 0.496693 0.186232
vt 0.827377 0.186232
vt 0.496693 0.206900
vt 0.827377 0.206900
vt 0.496693 0.227568
vt 0.827377 0.248235
vt 0.496693 0.248235
vt 0.827377 0.268903
vt 0.496693 0.268903
vt 0.496693 0.289571
vt 0.827377 0.289571
vt 0.496693 0.310238
vt 0.827377 0.330906
vt 0.496693 0.330906
vt 0.496693 0.351574
vt 0.827377 0.351574
vt 0.496693 0.372242
vt 0.827377 0.372242
vt 0.496693 0.392909
vt 0.827377 0.392909
vt 0.496693 0.413577
vt 0.827377 0.413577
vt 0.496693 0.434245
vt 0.827377 0.434245
vt 0.496693 0.454912
vt 0.827377 0.454912
vt 0.496693 0.475580
vt 0.827377 0.475580
vt 0.496693 0.496248
vt 0.827377 0.496248
vt 0.496693 0.516916
vt 0.827377 0.516916
vt 0.496693 0.537583
vt 0.827377 0.558251
vt 0.496693 0.558251
vt 0.496693 0.578919
vt 0.827377 0.578919
vt 0.496693 0.599586
vt 0.827377 0.599586
vt 0.496693 0.620254
vt 0.258882 0.942697
vt 0.248174 0.893123
vt 0.261140 0.873719
vt 0.006293 0.773922
vt 0.083363 0.680013
vt 0.064126 0.742079
vt 0.827377 0.620254
vt 0.496693 0.640922
vt 0.827377 0.640922
vt 0.496693 0.661590
vt 0.373863 0.942697
vt 0.372695 0.875756
vt 0.363764 0.854195
vt 0.632523 0.804440
vt 0.575255 0.697300
vt 0.582673 0.763520
vt 0.999777 0.020890
vt 0.827822 0.000223
vt 0.827822 0.020890
vt 0.999777 0.041558
vt 0.827822 0.041558
vt 0.999777 0.062226
vt 0.827822 0.062226
vt 0.999777 0.082893
vt 0.827822 0.082893
vt 0.999777 0.103561
vt 0.827822 0.103561
vt 0.999777 0.124229
vt 0.827822 0.124229
vt 0.999777 0.144897
vt 0.827822 0.144897
vt 0.827822 0.165564
vt 0.999777 0.165564
vt 0.827822 0.186232
vt 0.999777 0.186232
vt 0.827822 0.206900
vt 0.999777 0.206900
vt 0.827822 0.227568
vt 0.999777 0.227568
vt 0.827822 0.248235
vt 0.999777 0.248235
vt 0.827822 0.268903
vt 0.999777 0.268903
vt 0.999777 0.289571
vt 0.827822 0.289571
vt 0.827822 0.310238
vt 0.999777 0.310238
vt 0.827822 0.330906
vt 0.999777 0.330906
vt 0.999777 0.351574
vt 0.827822 0.351574
vt 0.827822 0.372242
vt 0.999777 0.372242
vt 0.827822 0.392909
vt 0.999777 0.392909
vt 0.999777 0.413577
vt 0.827822 0.413577
vt 0.999777 0.434245
vt 0.827822 0.434245
vt 0.999777 0.454912
vt 0.827822 0.454912
vt 0.999777 0.475580
vt 0.827822 0.475580
vt 0.999777 0.496248
vt 0.827822 0.496248
vt 0.999777 0.516916
vt 0.827822 0.516916
vt 0.827822 0.537583
vt 0.827822 0.558251
vt 0.999777 0.537583
vt 0.999777 0.578919
vt 0.827822 0.578919
vt 0.999777 0.599586
vt 0.827822 0.599586
vt 0.999777 0.620254
vt 0.827822 0.620254
vt 0.999777 0.640922
vt 0.827822 0.640922
vt 0.999777 0.661590
vt 0.827822 0.661590
vt 0.165564 0.057925
vt 0.165564 0.000223
vt 0.330906 0.661590
vt 0.000223 0.438545
vt 0.496248 0.496248
vt 0.802559 0.662035
vt 0.758114 0.662035
vt 0.827377 0.000223
vt 0.827377 0.062226
vt 0.827377 0.144897
vt 0.827377 0.227568
vt 0.827377 0.310238
vt 0.827377 0.537583
vt 0.100032 0.712612
vt 0.112110 0.668105
vt 0.142628 0.662035
vt 0.173744 0.662035
vt 0.204263 0.668105
vt 0.233010 0.680013
vt 0.258882 0.697300
vt 0.280885 0.719303
vt 0.298172 0.745175
vt 0.310080 0.773922
vt 0.316150 0.804441
vt 0.316150 0.835557
vt 0.310080 0.866075
vt 0.298172 0.894823
vt 0.280885 0.920695
vt 0.233010 0.959984
vt 0.204263 0.971892
vt 0.173744 0.977962
vt 0.142628 0.977962
vt 0.112110 0.971892
vt 0.083362 0.959984
vt 0.057490 0.942697
vt 0.035488 0.920695
vt 0.018201 0.894822
vt 0.006293 0.866075
vt 0.000223 0.835557
vt 0.000223 0.804440
vt 0.042230 0.783044
vt 0.037678 0.805932
vt 0.121593 0.703681
vt 0.037678 0.829269
vt 0.144482 0.699128
vt 0.167819 0.699128
vt 0.042230 0.852158
vt 0.051161 0.873719
vt 0.190708 0.703681
vt 0.064126 0.893123
vt 0.080628 0.909625
vt 0.212268 0.712612
vt 0.231672 0.725577
vt 0.100032 0.922590
vt 0.248174 0.742079
vt 0.261140 0.761483
vt 0.121593 0.931521
vt 0.144482 0.936074
vt 0.270070 0.783044
vt 0.167819 0.936074
vt 0.274623 0.805932
vt 0.274623 0.829269
vt 0.190708 0.931521
vt 0.212268 0.922590
vt 0.270070 0.852158
vt 0.231672 0.909625
vt 0.051161 0.761483
vt 0.018201 0.745175
vt 0.035488 0.719303
vt 0.057490 0.697300
vt 0.080628 0.725577
vt 0.827377 0.661590
vt 0.533802 0.714649
vt 0.553206 0.727614
vt 0.549383 0.680013
vt 0.520635 0.668105
vt 0.490117 0.662035
vt 0.459001 0.662035
vt 0.428483 0.668105
vt 0.399735 0.680013
vt 0.373863 0.697300
vt 0.351861 0.719303
vt 0.334573 0.745175
vt 0.322666 0.773922
vt 0.316595 0.804440
vt 0.316595 0.835557
vt 0.322666 0.866075
vt 0.334573 0.894822
vt 0.351861 0.920695
vt 0.399735 0.959984
vt 0.428483 0.971892
vt 0.459001 0.977962
vt 0.490117 0.977962
vt 0.520635 0.971892
vt 0.549383 0.959984
vt 0.575255 0.942697
vt 0.597258 0.920695
vt 0.614545 0.894822
vt 0.626452 0.866075
vt 0.632523 0.835557
vt 0.596157 0.807969
vt 0.596157 0.831306
vt 0.591604 0.854195
vt 0.512241 0.705718
vt 0.489352 0.701165
vt 0.582673 0.875756
vt 0.466015 0.701165
vt 0.569708 0.895160
vt 0.553206 0.911662
vt 0.443127 0.705718
vt 0.533802 0.924627
vt 0.421566 0.714648
vt 0.402162 0.727614
vt 0.512241 0.933558
vt 0.489353 0.938111
vt 0.385660 0.744116
vt 0.372695 0.763520
vt 0.466015 0.938111
vt 0.363764 0.785081
vt 0.443127 0.933558
vt 0.421566 0.924627
vt 0.359211 0.807969
vt 0.359211 0.831306
vt 0.402162 0.911662
vt 0.385660 0.895160
vt 0.591604 0.785080
vt 0.626452 0.773922
vt 0.614545 0.745175
vt 0.597258 0.719303
vt 0.569708 0.744116
vt 0.999777 0.000223
vt 0.999777 0.558251
s 0
usemtl Material.004
f 2/1/1 9/2/1 8/3/1
f 3/4/2 10/5/2 9/2/2
f 6/6/3 4/7/3 12/8/3
f 5/9/4 1/10/4 4/7/4
f 1/11/5 11/12/5 4/7/5
f 3/13/6 5/9/6 6/6/6
f 8/14/2 11/15/2 7/16/2
f 8/17/5 10/18/5 12/19/5
f 13/20/7 16/21/7 15/22/7
f 16/21/8 17/23/8 15/22/8
f 18/24/9 19/25/9 17/23/9
f 19/25/10 22/26/10 21/27/10
f 21/27/11 24/28/11 23/29/11
f 23/29/12 26/30/12 25/31/12
f 26/30/13 27/32/13 25/31/13
f 27/32/14 30/33/14 29/34/14
f 30/33/15 31/35/15 29/34/15
f 32/36/16 33/37/16 31/35/16
f 34/38/17 35/39/17 33/37/17
f 35/39/18 38/40/18 37/41/18
f 37/41/19 40/42/19 39/43/19
f 40/42/20 41/44/20 39/43/20
f 42/45/21 43/46/21 41/44/21
f 43/46/22 46/47/22 45/48/22
f 46/47/23 47/49/23 45/48/23
f 48/50/24 49/51/24 47/49/24
f 50/52/25 51/53/25 49/51/25
f 52/54/26 53/55/26 51/53/26
f 54/56/27 55/57/27 53/55/27
f 56/58/28 57/59/28 55/57/28
f 58/60/29 59/61/29 57/59/29
f 60/62/30 61/63/30 59/61/30
f 62/64/31 63/65/31 61/63/31
f 64/66/32 65/67/32 63/65/32
f 65/67/33 68/68/33 67/69/33
f 68/68/34 69/70/34 67/69/34
f 70/71/35 71/72/35 69/70/35
f 72/73/36 73/74/36 71/72/36
f 76/75/2 98/76/2 99/77/2
f 50/78/2 42/79/2 83/80/2
f 74/81/37 75/82/37 73/74/37
f 76/83/38 13/84/38 75/82/38
f 19/85/4 124/86/4 123/87/4
f 43/88/4 51/89/4 117/90/4
f 99/91/23 123/92/23 124/93/23
f 103/94/24 124/93/24 109/95/24
f 102/96/25 109/95/25 111/97/25
f 108/98/26 111/97/26 110/99/26
f 88/100/27 110/99/27 127/101/27
f 90/102/28 127/101/28 126/103/28
f 89/104/29 126/103/29 130/105/29
f 89/104/30 128/106/30 106/107/30
f 106/107/31 129/108/31 105/109/31
f 105/109/32 113/110/32 107/111/32
f 107/111/33 114/112/33 104/113/33
f 104/113/34 112/114/34 86/115/34
f 86/115/35 131/116/35 85/117/35
f 87/118/36 131/116/36 125/119/36
f 87/118/37 139/120/37 84/121/37
f 84/121/38 140/122/38 83/123/38
f 101/124/7 140/122/7 117/125/7
f 101/124/8 118/126/8 100/127/8
f 100/127/9 119/128/9 97/129/9
f 95/130/10 119/128/10 116/131/10
f 81/132/11 116/131/11 115/133/11
f 82/134/12 115/133/12 135/135/12
f 80/136/13 135/135/13 133/137/13
f 91/138/14 133/137/14 132/139/14
f 92/140/15 132/139/15 134/141/15
f 120/142/16 92/140/16 134/141/16
f 122/143/17 93/144/17 120/142/17
f 96/145/18 122/143/18 121/146/18
f 77/147/19 121/146/19 138/148/19
f 79/149/20 138/148/20 137/150/20
f 78/151/21 137/150/21 136/152/21
f 98/153/22 136/152/22 123/154/22
f 7/155/1 1/156/1 2/1/1
f 2/1/1 3/4/1 9/2/1
f 8/3/1 7/155/1 2/1/1
f 3/4/2 6/6/2 10/5/2
f 12/8/3 10/5/3 6/6/3
f 6/6/3 5/9/3 4/7/3
f 4/7/3 11/12/3 12/8/3
f 5/9/4 2/157/4 1/10/4
f 1/11/5 7/158/5 11/12/5
f 3/13/6 2/159/6 5/9/6
f 8/14/2 12/160/2 11/15/2
f 8/17/5 9/161/5 10/18/5
f 13/20/7 14/162/7 16/21/7
f 16/21/8 18/24/8 17/23/8
f 18/24/9 20/163/9 19/25/9
f 19/25/10 20/163/10 22/26/10
f 21/27/11 22/26/11 24/28/11
f 23/29/12 24/28/12 26/30/12
f 26/30/13 28/164/13 27/32/13
f 27/32/14 28/164/14 30/33/14
f 30/33/15 32/36/15 31/35/15
f 32/36/16 34/38/16 33/37/16
f 34/38/17 36/165/17 35/39/17
f 35/39/18 36/165/18 38/40/18
f 37/41/19 38/40/19 40/42/19
f 40/42/20 42/45/20 41/44/20
f 42/45/21 44/166/21 43/46/21
f 43/46/22 44/166/22 46/47/22
f 46/47/23 48/50/23 47/49/23
f 48/50/24 50/52/24 49/51/24
f 50/52/25 52/54/25 51/53/25
f 52/54/26 54/56/26 53/55/26
f 54/56/27 56/58/27 55/57/27
f 56/58/28 58/60/28 57/59/28
f 58/60/29 60/62/29 59/61/29
f 60/62/30 62/64/30 61/63/30
f 62/64/31 64/66/31 63/65/31
f 64/66/32 66/167/32 65/67/32
f 65/67/33 66/167/33 68/68/33
f 68/68/34 70/71/34 69/70/34
f 70/71/35 72/73/35 71/72/35
f 72/73/36 74/81/36 73/74/36
f 87/168/2 42/79/2 40/169/2
f 40/169/2 38/170/2 36/171/2
f 36/171/2 34/172/2 32/173/2
f 32/173/2 30/174/2 28/175/2
f 28/175/2 26/176/2 24/177/2
f 24/177/2 22/178/2 20/179/2
f 20/179/2 18/180/2 16/181/2
f 16/181/2 14/182/2 76/75/2
f 76/75/2 74/183/2 72/184/2
f 72/184/2 70/185/2 68/186/2
f 68/186/2 66/187/2 64/188/2
f 64/188/2 62/189/2 60/190/2
f 60/190/2 58/191/2 56/192/2
f 56/192/2 54/193/2 52/194/2
f 52/194/2 50/78/2 100/195/2
f 52/194/2 100/195/2 97/196/2
f 60/190/2 56/192/2 52/194/2
f 68/186/2 64/188/2 60/190/2
f 76/75/2 72/184/2 68/186/2
f 20/179/2 16/181/2 76/75/2
f 28/175/2 24/177/2 20/179/2
f 36/171/2 32/173/2 28/175/2
f 87/168/2 40/169/2 36/171/2
f 85/197/2 87/168/2 36/171/2
f 60/190/2 52/194/2 97/196/2
f 60/190/39 97/196/39 95/198/39
f 86/199/2 85/197/2 36/171/2
f 104/200/2 86/199/2 36/171/2
f 60/190/2 95/198/2 81/201/2
f 60/190/2 81/201/2 82/202/2
f 104/200/2 36/171/2 28/175/2
f 107/203/2 104/200/2 28/175/2
f 60/190/2 82/202/2 80/204/2
f 60/190/2 80/204/2 91/205/2
f 105/206/2 107/203/2 28/175/2
f 106/207/2 105/206/2 28/175/2
f 68/186/2 60/190/2 91/205/2
f 68/186/2 91/205/2 92/208/2
f 89/209/2 106/207/2 28/175/2
f 90/210/2 89/209/2 28/175/2
f 68/186/2 92/208/2 93/211/2
f 68/186/2 93/211/2 94/212/2
f 90/210/2 28/175/2 20/179/2
f 88/213/2 90/210/2 20/179/2
f 76/75/2 68/186/2 94/212/2
f 76/75/2 94/212/2 96/214/2
f 108/215/2 88/213/2 20/179/2
f 102/216/2 108/215/2 20/179/2
f 76/75/2 96/214/2 77/217/2
f 76/75/2 77/217/2 79/218/2
f 102/216/2 20/179/2 76/75/2
f 103/219/2 102/216/2 76/75/2
f 76/75/2 79/218/2 78/220/2
f 76/75/2 78/220/2 98/76/2
f 99/77/2 103/219/2 76/75/2
f 101/221/2 100/195/2 50/78/2
f 50/78/2 48/222/2 46/223/2
f 46/223/2 44/224/2 42/79/2
f 42/79/2 87/168/2 84/225/2
f 83/80/2 101/221/2 50/78/2
f 42/79/2 84/225/2 83/80/2
f 50/78/2 46/223/2 42/79/2
f 74/81/37 76/83/37 75/82/37
f 76/83/38 14/226/38 13/84/38
f 116/227/4 119/228/4 51/89/4
f 51/89/4 53/229/4 55/230/4
f 55/230/4 57/231/4 59/232/4
f 59/232/4 61/233/4 63/234/4
f 63/234/4 65/235/4 67/236/4
f 67/236/4 69/237/4 71/238/4
f 71/238/4 73/239/4 75/240/4
f 75/240/4 13/241/4 15/242/4
f 15/242/4 17/243/4 19/85/4
f 19/85/4 21/244/4 23/245/4
f 23/245/4 25/246/4 27/247/4
f 27/247/4 29/248/4 31/249/4
f 31/249/4 33/250/4 35/251/4
f 35/251/4 37/252/4 39/253/4
f 39/253/4 41/254/4 43/88/4
f 43/88/4 139/255/4 125/256/4
f 43/88/4 125/256/4 131/257/4
f 35/251/4 39/253/4 43/88/4
f 27/247/4 31/249/4 35/251/4
f 19/85/4 23/245/4 27/247/4
f 75/240/4 15/242/4 19/85/4
f 67/236/4 71/238/4 75/240/4
f 59/232/4 63/234/4 67/236/4
f 51/89/4 55/230/4 59/232/4
f 115/258/4 116/227/4 51/89/4
f 135/259/4 115/258/4 51/89/4
f 35/251/4 43/88/4 131/257/4
f 35/251/4 131/257/4 112/260/4
f 135/259/4 51/89/4 59/232/4
f 133/261/4 135/259/4 59/232/4
f 35/251/4 112/260/4 114/262/4
f 35/251/4 114/262/4 113/263/4
f 133/261/4 59/232/4 67/236/4
f 132/264/4 133/261/4 67/236/4
f 27/247/4 35/251/4 113/263/4
f 27/247/4 113/263/4 129/265/4
f 134/266/4 132/264/4 67/236/4
f 120/267/4 134/266/4 67/236/4
f 27/247/4 129/265/4 128/268/4
f 27/247/4 128/268/4 130/269/4
f 122/270/4 120/267/4 67/236/4
f 121/271/4 122/270/4 67/236/4
f 19/85/4 27/247/4 130/269/4
f 19/85/4 130/269/4 126/272/4
f 121/271/4 67/236/4 75/240/4
f 138/273/4 121/271/4 75/240/4
f 19/85/4 126/272/4 127/274/4
f 19/85/4 127/274/4 110/275/4
f 137/276/4 138/273/4 75/240/4
f 136/277/4 137/276/4 75/240/4
f 19/85/4 110/275/4 111/278/4
f 19/85/4 111/278/4 109/279/4
f 136/277/4 75/240/4 19/85/4
f 123/87/40 136/277/40 19/85/40
f 19/85/4 109/279/4 124/86/4
f 140/280/4 139/255/4 43/88/4
f 43/88/4 45/281/4 47/282/4
f 47/282/4 49/283/4 51/89/4
f 51/89/4 119/228/4 118/284/4
f 117/90/4 140/280/4 43/88/4
f 51/89/4 118/284/4 117/90/4
f 43/88/4 47/282/4 51/89/4
f 99/91/23 98/285/23 123/92/23
f 103/94/24 99/91/24 124/93/24
f 102/96/25 103/94/25 109/95/25
f 108/98/26 102/96/26 111/97/26
f 88/100/27 108/98/27 110/99/27
f 90/102/28 88/100/28 127/101/28
f 89/104/29 90/102/29 126/103/29
f 89/104/30 130/105/30 128/106/30
f 106/107/31 128/106/31 129/108/31
f 105/109/32 129/108/32 113/110/32
f 107/111/33 113/110/33 114/112/33
f 104/113/34 114/112/34 112/114/34
f 86/115/35 112/114/35 131/116/35
f 87/118/36 85/117/36 131/116/36
f 87/118/37 125/119/37 139/120/37
f 84/121/38 139/120/38 140/122/38
f 101/124/7 83/123/7 140/122/7
f 101/124/8 117/125/8 118/126/8
f 100/127/9 118/126/9 119/128/9
f 95/130/10 97/129/10 119/128/10
f 81/132/11 95/130/11 116/131/11
f 82/134/12 81/132/12 115/133/12
f 80/136/13 82/134/13 135/135/13
f 91/138/14 80/136/14 133/137/14
f 92/140/15 91/138/15 132/139/15
f 120/142/16 93/144/16 92/140/16
f 122/143/17 94/286/17 93/144/17
f 96/145/18 94/286/18 122/143/18
f 77/147/19 96/145/19 121/146/19
f 79/149/20 77/147/20 138/148/20
f 78/151/21 79/149/21 137/150/21
f 98/153/22 78/151/22 136/152/22
